<svg height="512" viewBox="0 0 32 32" width="512" xmlns="http://www.w3.org/2000/svg"><g id="Layer_36" data-name="Layer 36"><circle cx="16" cy="16" fill="#fdc019" r="13"/><path d="m16 3a13 13 0 0 1 0 26z" fill="#fd9f0f"/><path d="m21 17h-1.39l-.3637-1h1.7537a1 1 0 0 0 0-2h-2.4812l-1.5788-4.3418a1 1 0 0 0 -1.88 0l-1.5788 4.3418h-2.4812a1 1 0 0 0 0 2h1.754l-.364 1h-1.39a1 1 0 0 0 0 2h.663l-.603 1.6582a1 1 0 0 0 1.88.6836l.8514-2.3418h4.4172l.8515 2.3418a1 1 0 0 0 1.88-.6836l-.6031-1.6582h.663a1 1 0 0 0 0-2zm-5-4.0742.3906 1.0742h-.7812zm-1.4814 4.0742.3636-1h2.2356l.3636 1z" fill="#fef6e3"/><path d="m26.24 25a1 1 0 0 1 -.7856-1.6182 11.8285 11.8285 0 0 0 2.5456-7.3818 11.995 11.995 0 0 0 -19.6606-9.231 1 1 0 0 1 -1.2784-1.538 13.995 13.995 0 0 1 22.939 10.769 13.81 13.81 0 0 1 -2.9736 8.6182.9985.9985 0 0 1 -.7864.3818z"/><path d="m16 30a14.0158 14.0158 0 0 1 -14-14 13.81 13.81 0 0 1 2.9736-8.6182 1 1 0 0 1 1.5723 1.2364 11.8285 11.8285 0 0 0 -2.5459 7.3818 11.995 11.995 0 0 0 19.6606 9.231 1 1 0 1 1 1.2784 1.538 14.0132 14.0132 0 0 1 -8.939 3.231z"/></g></svg>